<mxfile host="app.diagrams.net" modified="2024-03-25T04:34:45.991Z" agent="Mozilla/5.0 (Windows NT 10.0; Win64; x64) AppleWebKit/537.36 (KHTML, like Gecko) Chrome/122.0.0.0 Safari/537.36" etag="nt_Mqmdoz29NnO4SCrwD" version="24.0.6" type="device">
  <diagram name="MVC2" id="xvpGlACkxxyw4gnqfa64">
    <mxGraphModel dx="1434" dy="-20" grid="1" gridSize="10" guides="1" tooltips="1" connect="1" arrows="1" fold="1" page="0" pageScale="1" pageWidth="827" pageHeight="1169" math="0" shadow="0">
      <root>
        <mxCell id="0" />
        <mxCell id="1" parent="0" />
        <mxCell id="FqPqJ5gadH0NKvZVsXtq-1" value="" style="rounded=0;whiteSpace=wrap;html=1;" parent="1" vertex="1">
          <mxGeometry x="1478" y="960" width="322" height="1410" as="geometry" />
        </mxCell>
        <mxCell id="FqPqJ5gadH0NKvZVsXtq-2" value="" style="rounded=0;whiteSpace=wrap;html=1;" parent="1" vertex="1">
          <mxGeometry x="1200" y="960" width="250" height="1410" as="geometry" />
        </mxCell>
        <mxCell id="FqPqJ5gadH0NKvZVsXtq-3" value="&lt;font color=&quot;#000000&quot;&gt;Controller&lt;/font&gt;" style="shape=umlFrame;whiteSpace=wrap;html=1;fontColor=#FF0000;" parent="1" vertex="1">
          <mxGeometry x="490" y="970" width="700" height="1400" as="geometry" />
        </mxCell>
        <mxCell id="FqPqJ5gadH0NKvZVsXtq-4" value="&lt;font color=&quot;#000000&quot;&gt;VIew&lt;/font&gt;" style="shape=umlFrame;whiteSpace=wrap;html=1;fontColor=#FF0000;" parent="1" vertex="1">
          <mxGeometry x="25" y="970" width="450" height="1400" as="geometry" />
        </mxCell>
        <mxCell id="FqPqJ5gadH0NKvZVsXtq-6" value="Presentation Layer(프레젠테이션 계층)&lt;br&gt;- 사용자의 요청사항을 받아서 해당 서비스로 연결해주고 처리 결과를 사용자에게 알려주는 영역" style="rounded=0;whiteSpace=wrap;html=1;" parent="1" vertex="1">
          <mxGeometry x="20" y="870" width="1170" height="50" as="geometry" />
        </mxCell>
        <mxCell id="FqPqJ5gadH0NKvZVsXtq-7" value="Controller" style="text;html=1;align=center;verticalAlign=middle;resizable=0;points=[];autosize=1;strokeColor=none;fillColor=none;" parent="1" vertex="1">
          <mxGeometry x="525" y="930" width="80" height="30" as="geometry" />
        </mxCell>
        <mxCell id="FqPqJ5gadH0NKvZVsXtq-18" value="" style="endArrow=none;html=1;rounded=0;exitX=0.995;exitY=0.521;exitDx=0;exitDy=0;exitPerimeter=0;entryX=0;entryY=0.446;entryDx=0;entryDy=0;entryPerimeter=0;" parent="1" edge="1">
          <mxGeometry width="50" height="50" relative="1" as="geometry">
            <mxPoint x="457.9249999999997" y="1257.98" as="sourcePoint" />
            <mxPoint x="580" y="1397.98" as="targetPoint" />
          </mxGeometry>
        </mxCell>
        <mxCell id="FqPqJ5gadH0NKvZVsXtq-19" value="" style="endArrow=none;html=1;rounded=0;exitX=1;exitY=0.5;exitDx=0;exitDy=0;entryX=0;entryY=0.5;entryDx=0;entryDy=0;" parent="1" edge="1">
          <mxGeometry width="50" height="50" relative="1" as="geometry">
            <mxPoint x="462.5" y="1710" as="sourcePoint" />
            <mxPoint x="580" y="1405" as="targetPoint" />
          </mxGeometry>
        </mxCell>
        <mxCell id="FqPqJ5gadH0NKvZVsXtq-26" value="&lt;font color=&quot;#000000&quot;&gt;Model&lt;/font&gt;" style="shape=umlFrame;whiteSpace=wrap;html=1;fontColor=#FF0000;" parent="1" vertex="1">
          <mxGeometry x="1210" y="970" width="580" height="480" as="geometry" />
        </mxCell>
        <mxCell id="FqPqJ5gadH0NKvZVsXtq-27" value="영화&lt;br&gt;테이블" style="shape=cylinder3;whiteSpace=wrap;html=1;boundedLbl=1;backgroundOutline=1;size=15;" parent="1" vertex="1">
          <mxGeometry x="1830" y="1000" width="50" height="70" as="geometry" />
        </mxCell>
        <mxCell id="FqPqJ5gadH0NKvZVsXtq-28" value="" style="endArrow=none;html=1;rounded=0;entryX=0;entryY=0.5;entryDx=0;entryDy=0;" parent="1" edge="1">
          <mxGeometry width="50" height="50" relative="1" as="geometry">
            <mxPoint x="1140" y="1140" as="sourcePoint" />
            <mxPoint x="1280.0000000000005" y="1035" as="targetPoint" />
          </mxGeometry>
        </mxCell>
        <mxCell id="FqPqJ5gadH0NKvZVsXtq-29" value="" style="endArrow=none;html=1;rounded=0;entryX=-0.011;entryY=0.428;entryDx=0;entryDy=0;entryPerimeter=0;" parent="1" edge="1">
          <mxGeometry width="50" height="50" relative="1" as="geometry">
            <mxPoint x="1440" y="1033" as="sourcePoint" />
            <mxPoint x="1488.2399999999998" y="1032.8" as="targetPoint" />
          </mxGeometry>
        </mxCell>
        <mxCell id="FqPqJ5gadH0NKvZVsXtq-30" value="&lt;font color=&quot;#000000&quot;&gt;Model&lt;/font&gt;" style="shape=umlFrame;whiteSpace=wrap;html=1;fontColor=#FF0000;" parent="1" vertex="1">
          <mxGeometry x="1210" y="1470" width="570" height="440" as="geometry" />
        </mxCell>
        <mxCell id="FqPqJ5gadH0NKvZVsXtq-32" value="영화&lt;br&gt;테이블" style="shape=cylinder3;whiteSpace=wrap;html=1;boundedLbl=1;backgroundOutline=1;size=15;" parent="1" vertex="1">
          <mxGeometry x="1830" y="1500" width="50" height="70" as="geometry" />
        </mxCell>
        <mxCell id="FqPqJ5gadH0NKvZVsXtq-33" value="" style="endArrow=none;html=1;rounded=0;entryX=-0.011;entryY=0.428;entryDx=0;entryDy=0;entryPerimeter=0;" parent="1" edge="1">
          <mxGeometry width="50" height="50" relative="1" as="geometry">
            <mxPoint x="1440" y="1533" as="sourcePoint" />
            <mxPoint x="1488.2399999999998" y="1532.8000000000002" as="targetPoint" />
          </mxGeometry>
        </mxCell>
        <mxCell id="FqPqJ5gadH0NKvZVsXtq-34" value="" style="endArrow=none;html=1;rounded=0;exitX=0.5;exitY=0;exitDx=0;exitDy=0;entryX=0.5;entryY=1;entryDx=0;entryDy=0;" parent="1" edge="1">
          <mxGeometry width="50" height="50" relative="1" as="geometry">
            <mxPoint x="1570" y="1630" as="sourcePoint" />
            <mxPoint x="1570" y="1590" as="targetPoint" />
          </mxGeometry>
        </mxCell>
        <mxCell id="FqPqJ5gadH0NKvZVsXtq-35" value="&lt;font color=&quot;#000000&quot;&gt;Model&lt;/font&gt;" style="shape=umlFrame;whiteSpace=wrap;html=1;fontColor=#FF0000;" parent="1" vertex="1">
          <mxGeometry x="1210" y="1930" width="570" height="270" as="geometry" />
        </mxCell>
        <mxCell id="FqPqJ5gadH0NKvZVsXtq-37" value="&lt;p style=&quot;margin:0px;margin-top:4px;text-align:center;&quot;&gt;&lt;b&gt;예매테이블 CRUD Class&lt;/b&gt;&lt;/p&gt;&lt;hr size=&quot;1&quot;&gt;&lt;p style=&quot;margin:0px;margin-left:4px;&quot;&gt;+ field: Type&lt;/p&gt;&lt;hr size=&quot;1&quot;&gt;&lt;p style=&quot;margin:0px;margin-left:4px;&quot;&gt;+ method(): Type&lt;/p&gt;" style="verticalAlign=top;align=left;overflow=fill;fontSize=12;fontFamily=Helvetica;html=1;whiteSpace=wrap;" parent="1" vertex="1">
          <mxGeometry x="1500" y="1950" width="150" height="100" as="geometry" />
        </mxCell>
        <mxCell id="FqPqJ5gadH0NKvZVsXtq-38" value="&lt;p style=&quot;margin:0px;margin-top:4px;text-align:center;&quot;&gt;&lt;b&gt;예매정보저장 Class&lt;/b&gt;&lt;/p&gt;&lt;hr size=&quot;1&quot;&gt;&lt;p style=&quot;margin:0px;margin-left:4px;&quot;&gt;+ field: Type&lt;/p&gt;&lt;hr size=&quot;1&quot;&gt;&lt;p style=&quot;margin:0px;margin-left:4px;&quot;&gt;+ method(): Type&lt;/p&gt;" style="verticalAlign=top;align=left;overflow=fill;fontSize=12;fontFamily=Helvetica;html=1;whiteSpace=wrap;" parent="1" vertex="1">
          <mxGeometry x="1490" y="2090" width="160" height="90" as="geometry" />
        </mxCell>
        <mxCell id="FqPqJ5gadH0NKvZVsXtq-39" value="영화&lt;br&gt;테이블" style="shape=cylinder3;whiteSpace=wrap;html=1;boundedLbl=1;backgroundOutline=1;size=15;" parent="1" vertex="1">
          <mxGeometry x="1830" y="1950" width="50" height="70" as="geometry" />
        </mxCell>
        <mxCell id="FqPqJ5gadH0NKvZVsXtq-40" value="" style="endArrow=none;html=1;rounded=0;entryX=-0.011;entryY=0.428;entryDx=0;entryDy=0;entryPerimeter=0;" parent="1" target="FqPqJ5gadH0NKvZVsXtq-37" edge="1">
          <mxGeometry width="50" height="50" relative="1" as="geometry">
            <mxPoint x="1440" y="1993" as="sourcePoint" />
            <mxPoint x="1290" y="2005" as="targetPoint" />
          </mxGeometry>
        </mxCell>
        <mxCell id="FqPqJ5gadH0NKvZVsXtq-41" value="" style="endArrow=none;html=1;rounded=0;exitX=0.5;exitY=0;exitDx=0;exitDy=0;entryX=0.5;entryY=1;entryDx=0;entryDy=0;" parent="1" source="FqPqJ5gadH0NKvZVsXtq-38" target="FqPqJ5gadH0NKvZVsXtq-37" edge="1">
          <mxGeometry width="50" height="50" relative="1" as="geometry">
            <mxPoint x="1449" y="2017" as="sourcePoint" />
            <mxPoint x="1498" y="2016" as="targetPoint" />
          </mxGeometry>
        </mxCell>
        <mxCell id="FqPqJ5gadH0NKvZVsXtq-42" value="Business Layer" style="rounded=0;whiteSpace=wrap;html=1;" parent="1" vertex="1">
          <mxGeometry x="1200" y="870" width="250" height="50" as="geometry" />
        </mxCell>
        <mxCell id="FqPqJ5gadH0NKvZVsXtq-43" value="Persistance Layer" style="rounded=0;whiteSpace=wrap;html=1;fillColor=#d5e8d4;strokeColor=#82b366;" parent="1" vertex="1">
          <mxGeometry x="1480" y="870" width="320" height="50" as="geometry" />
        </mxCell>
        <mxCell id="FqPqJ5gadH0NKvZVsXtq-44" value="" style="endArrow=none;html=1;rounded=0;entryX=0;entryY=0.5;entryDx=0;entryDy=0;entryPerimeter=0;" parent="1" target="FqPqJ5gadH0NKvZVsXtq-27" edge="1">
          <mxGeometry width="50" height="50" relative="1" as="geometry">
            <mxPoint x="1650" y="1035" as="sourcePoint" />
            <mxPoint x="1498" y="1043" as="targetPoint" />
          </mxGeometry>
        </mxCell>
        <mxCell id="FqPqJ5gadH0NKvZVsXtq-45" value="" style="endArrow=none;html=1;rounded=0;entryX=0;entryY=0.5;entryDx=0;entryDy=0;entryPerimeter=0;exitX=0.995;exitY=0.435;exitDx=0;exitDy=0;exitPerimeter=0;" parent="1" target="FqPqJ5gadH0NKvZVsXtq-32" edge="1">
          <mxGeometry width="50" height="50" relative="1" as="geometry">
            <mxPoint x="1649.2000000000003" y="1533.5" as="sourcePoint" />
            <mxPoint x="1750" y="1255" as="targetPoint" />
          </mxGeometry>
        </mxCell>
        <mxCell id="FqPqJ5gadH0NKvZVsXtq-46" value="" style="endArrow=none;html=1;rounded=0;entryX=0;entryY=0.571;entryDx=0;entryDy=0;entryPerimeter=0;exitX=0.995;exitY=0.418;exitDx=0;exitDy=0;exitPerimeter=0;" parent="1" source="FqPqJ5gadH0NKvZVsXtq-37" target="FqPqJ5gadH0NKvZVsXtq-39" edge="1">
          <mxGeometry width="50" height="50" relative="1" as="geometry">
            <mxPoint x="1659" y="1713" as="sourcePoint" />
            <mxPoint x="1750" y="1715" as="targetPoint" />
          </mxGeometry>
        </mxCell>
        <mxCell id="FqPqJ5gadH0NKvZVsXtq-47" value="" style="endArrow=none;html=1;rounded=0;entryX=0;entryY=0.5;entryDx=0;entryDy=0;exitX=1.01;exitY=0.418;exitDx=0;exitDy=0;exitPerimeter=0;" parent="1" edge="1">
          <mxGeometry width="50" height="50" relative="1" as="geometry">
            <mxPoint x="1141.6000000000004" y="1534.34" as="sourcePoint" />
            <mxPoint x="1280" y="1535" as="targetPoint" />
          </mxGeometry>
        </mxCell>
        <mxCell id="FqPqJ5gadH0NKvZVsXtq-48" value="" style="endArrow=none;html=1;rounded=0;entryX=-0.005;entryY=0.446;entryDx=0;entryDy=0;exitX=0.995;exitY=0.386;exitDx=0;exitDy=0;exitPerimeter=0;entryPerimeter=0;" parent="1" edge="1">
          <mxGeometry width="50" height="50" relative="1" as="geometry">
            <mxPoint x="1139.2000000000003" y="1820.1799999999998" as="sourcePoint" />
            <mxPoint x="1279.2000000000003" y="1990.1399999999999" as="targetPoint" />
          </mxGeometry>
        </mxCell>
        <mxCell id="FqPqJ5gadH0NKvZVsXtq-50" value="&lt;div style=&quot;text-align: left;&quot;&gt;&lt;span style=&quot;background-color: initial;&quot;&gt;각서비스에 맞는 로직함수 생성&lt;/span&gt;&lt;/div&gt;&lt;div style=&quot;text-align: left;&quot;&gt;&lt;span style=&quot;background-color: initial;&quot;&gt;ex)&amp;nbsp; 로그인처리기능(함수)&lt;/span&gt;&lt;/div&gt;&lt;div style=&quot;text-align: left;&quot;&gt;1 사용자 ID 확인&lt;/div&gt;&lt;div style=&quot;text-align: left;&quot;&gt;2 사용자 PW 일치 확인&lt;/div&gt;&lt;div style=&quot;text-align: left;&quot;&gt;3 기본 역활 확인후 전달(사서 or 회원)&lt;/div&gt;" style="text;html=1;align=center;verticalAlign=middle;resizable=0;points=[];autosize=1;strokeColor=none;fillColor=none;" parent="1" vertex="1">
          <mxGeometry x="1220" y="1270" width="220" height="90" as="geometry" />
        </mxCell>
        <mxCell id="sM7QkV9tPfOwtoWtTQcW-1" value="" style="rounded=0;whiteSpace=wrap;html=1;" parent="1" vertex="1">
          <mxGeometry x="43" y="1050" width="415" height="380" as="geometry" />
        </mxCell>
        <mxCell id="sM7QkV9tPfOwtoWtTQcW-2" value="User Viewer" style="text;html=1;align=center;verticalAlign=middle;resizable=0;points=[];autosize=1;strokeColor=none;fillColor=none;" parent="1" vertex="1">
          <mxGeometry x="33" y="1020" width="90" height="30" as="geometry" />
        </mxCell>
        <mxCell id="sM7QkV9tPfOwtoWtTQcW-3" value="" style="edgeStyle=none;curved=1;rounded=0;orthogonalLoop=1;jettySize=auto;html=1;fontSize=12;startSize=8;endSize=8;" parent="1" source="sM7QkV9tPfOwtoWtTQcW-5" target="sM7QkV9tPfOwtoWtTQcW-4" edge="1">
          <mxGeometry relative="1" as="geometry" />
        </mxCell>
        <mxCell id="sM7QkV9tPfOwtoWtTQcW-4" value="&lt;p style=&quot;margin:0px;margin-top:4px;text-align:center;&quot;&gt;&lt;b&gt;로그인 화면 Class&lt;/b&gt;&lt;/p&gt;&lt;hr size=&quot;1&quot;&gt;&lt;p style=&quot;margin:0px;margin-left:4px;&quot;&gt;+ 회원_ID : String&lt;/p&gt;&lt;p style=&quot;margin:0px;margin-left:4px;&quot;&gt;- pw : String&lt;/p&gt;&lt;hr size=&quot;1&quot;&gt;&lt;p style=&quot;margin:0px;margin-left:4px;&quot;&gt;+ login() : void&lt;/p&gt;&lt;p style=&quot;margin:0px;margin-left:4px;&quot;&gt;+ logout() : void&lt;/p&gt;&lt;p style=&quot;margin:0px;margin-left:4px;&quot;&gt;+ join() : void&lt;/p&gt;&lt;p style=&quot;margin:0px;margin-left:4px;&quot;&gt;&lt;br&gt;&lt;/p&gt;" style="verticalAlign=top;align=left;overflow=fill;fontSize=12;fontFamily=Helvetica;html=1;whiteSpace=wrap;" parent="1" vertex="1">
          <mxGeometry x="60.5" y="1060" width="155" height="120" as="geometry" />
        </mxCell>
        <mxCell id="sM7QkV9tPfOwtoWtTQcW-5" value="&lt;p style=&quot;margin:0px;margin-top:4px;text-align:center;&quot;&gt;&lt;b&gt;메인 화면 Class&lt;/b&gt;&lt;/p&gt;&lt;hr size=&quot;1&quot;&gt;&lt;p style=&quot;margin:0px;margin-left:4px;&quot;&gt;+ field: Type&lt;/p&gt;&lt;hr size=&quot;1&quot;&gt;&lt;p style=&quot;margin:0px;margin-left:4px;&quot;&gt;+ method(): Type&lt;/p&gt;" style="verticalAlign=top;align=left;overflow=fill;fontSize=12;fontFamily=Helvetica;html=1;whiteSpace=wrap;" parent="1" vertex="1">
          <mxGeometry x="281" y="1055" width="160" height="130" as="geometry" />
        </mxCell>
        <mxCell id="sM7QkV9tPfOwtoWtTQcW-6" value="" style="edgeStyle=none;curved=1;rounded=0;orthogonalLoop=1;jettySize=auto;html=1;fontSize=12;startSize=8;endSize=8;" parent="1" source="sM7QkV9tPfOwtoWtTQcW-7" target="sM7QkV9tPfOwtoWtTQcW-9" edge="1">
          <mxGeometry relative="1" as="geometry" />
        </mxCell>
        <mxCell id="sM7QkV9tPfOwtoWtTQcW-7" value="&lt;p style=&quot;margin:0px;margin-top:4px;text-align:center;&quot;&gt;&lt;b&gt;영화 검색 화면 Class&lt;/b&gt;&lt;/p&gt;&lt;hr size=&quot;1&quot;&gt;&lt;p style=&quot;margin:0px;margin-left:4px;&quot;&gt;&lt;/p&gt;&lt;p style=&quot;margin: 0px 0px 0px 4px;&quot;&gt;+ 영화_ID : Int&lt;/p&gt;&lt;p style=&quot;margin: 0px 0px 0px 4px;&quot;&gt;+ 영화 제목 : String&lt;/p&gt;&lt;p style=&quot;margin: 0px 0px 0px 4px;&quot;&gt;+ 영화 장르 : String&lt;/p&gt;&lt;p style=&quot;margin: 0px 0px 0px 4px;&quot;&gt;+ 예매 가능 여부 : boolean&lt;/p&gt;&lt;p style=&quot;margin:0px;margin-left:4px;&quot;&gt;&lt;span style=&quot;background-color: initial;&quot;&gt;+ 상영 시작 시간 : Date&lt;/span&gt;&lt;/p&gt;&lt;hr&gt;&amp;nbsp;+ 영화 조회 : void&lt;div&gt;&amp;nbsp;+ 영화 선택 : void&lt;br&gt;&lt;div&gt;&lt;br&gt;&lt;/div&gt;&lt;/div&gt;" style="verticalAlign=top;align=left;overflow=fill;fontSize=12;fontFamily=Helvetica;html=1;whiteSpace=wrap;" parent="1" vertex="1">
          <mxGeometry x="60.5" y="1230" width="155" height="170" as="geometry" />
        </mxCell>
        <mxCell id="sM7QkV9tPfOwtoWtTQcW-8" value="" style="endArrow=none;html=1;rounded=0;exitX=0.5;exitY=0;exitDx=0;exitDy=0;entryX=0.5;entryY=1;entryDx=0;entryDy=0;startArrow=block;startFill=1;" parent="1" source="sM7QkV9tPfOwtoWtTQcW-7" target="sM7QkV9tPfOwtoWtTQcW-4" edge="1">
          <mxGeometry width="50" height="50" relative="1" as="geometry">
            <mxPoint x="220" y="1140" as="sourcePoint" />
            <mxPoint x="271" y="1220" as="targetPoint" />
            <Array as="points" />
          </mxGeometry>
        </mxCell>
        <mxCell id="sM7QkV9tPfOwtoWtTQcW-9" value="&lt;p style=&quot;margin:0px;margin-top:4px;text-align:center;&quot;&gt;&lt;b&gt;영화 예매 화면 Class&lt;/b&gt;&lt;/p&gt;&lt;hr size=&quot;1&quot;&gt;&lt;p style=&quot;margin:0px;margin-left:4px;&quot;&gt;+ 할인권_ID : int&lt;/p&gt;&lt;p style=&quot;margin:0px;margin-left:4px;&quot;&gt;+ 예매 성공 여부 : boolean&lt;/p&gt;&lt;hr size=&quot;1&quot;&gt;&lt;p style=&quot;margin:0px;margin-left:4px;&quot;&gt;+ pay() : void&lt;/p&gt;&lt;p style=&quot;margin:0px;margin-left:4px;&quot;&gt;+ returnreservID() :&amp;nbsp;&lt;/p&gt;&lt;p style=&quot;margin:0px;margin-left:4px;&quot;&gt;&lt;span style=&quot;white-space: pre;&quot;&gt;&#x9;&lt;/span&gt;&lt;span style=&quot;white-space: pre;&quot;&gt;&#x9;&lt;/span&gt;&lt;span style=&quot;white-space: pre;&quot;&gt;&#x9;&lt;/span&gt;int 예매_ID&lt;/p&gt;" style="verticalAlign=top;align=left;overflow=fill;fontSize=12;fontFamily=Helvetica;html=1;whiteSpace=wrap;" parent="1" vertex="1">
          <mxGeometry x="293" y="1253" width="155" height="125" as="geometry" />
        </mxCell>
        <mxCell id="WxR0v2_Uw6utIprh0zth-1" value="" style="rounded=0;whiteSpace=wrap;html=1;" parent="1" vertex="1">
          <mxGeometry x="46.5" y="1476" width="415" height="380" as="geometry" />
        </mxCell>
        <mxCell id="WxR0v2_Uw6utIprh0zth-2" value="Admin Viewer" style="text;html=1;align=center;verticalAlign=middle;resizable=0;points=[];autosize=1;strokeColor=none;fillColor=none;" parent="1" vertex="1">
          <mxGeometry x="38.5" y="1446" width="100" height="30" as="geometry" />
        </mxCell>
        <mxCell id="WxR0v2_Uw6utIprh0zth-3" value="" style="edgeStyle=none;curved=1;rounded=0;orthogonalLoop=1;jettySize=auto;html=1;fontSize=12;startSize=8;endSize=8;" parent="1" source="WxR0v2_Uw6utIprh0zth-5" target="WxR0v2_Uw6utIprh0zth-4" edge="1">
          <mxGeometry relative="1" as="geometry" />
        </mxCell>
        <mxCell id="WxR0v2_Uw6utIprh0zth-4" value="&lt;p style=&quot;margin:0px;margin-top:4px;text-align:center;&quot;&gt;&lt;b&gt;로그인 화면 Class&lt;/b&gt;&lt;/p&gt;&lt;hr size=&quot;1&quot;&gt;&lt;p style=&quot;margin:0px;margin-left:4px;&quot;&gt;+ 관리자_ID : String&lt;/p&gt;&lt;p style=&quot;margin:0px;margin-left:4px;&quot;&gt;- pw : String&lt;/p&gt;&lt;hr size=&quot;1&quot;&gt;&lt;p style=&quot;margin:0px;margin-left:4px;&quot;&gt;+ login() : void&lt;/p&gt;&lt;p style=&quot;margin:0px;margin-left:4px;&quot;&gt;+ logout() : void&lt;/p&gt;&lt;p style=&quot;margin:0px;margin-left:4px;&quot;&gt;&lt;br&gt;&lt;/p&gt;" style="verticalAlign=top;align=left;overflow=fill;fontSize=12;fontFamily=Helvetica;html=1;whiteSpace=wrap;" parent="1" vertex="1">
          <mxGeometry x="64" y="1486" width="155" height="120" as="geometry" />
        </mxCell>
        <mxCell id="WxR0v2_Uw6utIprh0zth-5" value="&lt;p style=&quot;margin:0px;margin-top:4px;text-align:center;&quot;&gt;&lt;b&gt;메인 화면 Class&lt;/b&gt;&lt;/p&gt;&lt;hr size=&quot;1&quot;&gt;&lt;p style=&quot;margin:0px;margin-left:4px;&quot;&gt;+ field: Type&lt;/p&gt;&lt;hr size=&quot;1&quot;&gt;&lt;p style=&quot;margin:0px;margin-left:4px;&quot;&gt;+ method(): Type&lt;/p&gt;" style="verticalAlign=top;align=left;overflow=fill;fontSize=12;fontFamily=Helvetica;html=1;whiteSpace=wrap;" parent="1" vertex="1">
          <mxGeometry x="284.5" y="1481" width="160" height="130" as="geometry" />
        </mxCell>
        <mxCell id="WxR0v2_Uw6utIprh0zth-6" value="" style="edgeStyle=none;curved=1;rounded=0;orthogonalLoop=1;jettySize=auto;html=1;fontSize=12;startSize=8;endSize=8;" parent="1" source="WxR0v2_Uw6utIprh0zth-7" target="WxR0v2_Uw6utIprh0zth-9" edge="1">
          <mxGeometry relative="1" as="geometry" />
        </mxCell>
        <mxCell id="WxR0v2_Uw6utIprh0zth-7" value="&lt;p style=&quot;margin:0px;margin-top:4px;text-align:center;&quot;&gt;&lt;b&gt;영화 검색 화면 Class&lt;/b&gt;&lt;/p&gt;&lt;hr size=&quot;1&quot;&gt;&lt;p style=&quot;margin:0px;margin-left:4px;&quot;&gt;&lt;/p&gt;&lt;p style=&quot;margin: 0px 0px 0px 4px;&quot;&gt;+ 영화_ID : Int&lt;/p&gt;&lt;p style=&quot;margin: 0px 0px 0px 4px;&quot;&gt;+ 영화 제목 : String&lt;/p&gt;&lt;p style=&quot;margin: 0px 0px 0px 4px;&quot;&gt;+ 영화 장르 : String&lt;/p&gt;&lt;p style=&quot;margin: 0px 0px 0px 4px;&quot;&gt;+ 예매 가능 여부 : boolean&lt;/p&gt;&lt;p style=&quot;margin:0px;margin-left:4px;&quot;&gt;&lt;span style=&quot;background-color: initial;&quot;&gt;+ 상영 시작 시간 : Date&lt;/span&gt;&lt;/p&gt;&lt;hr&gt;&amp;nbsp;+ 영화 조회 : void&lt;div&gt;&amp;nbsp;+ 영화 선택 : void&lt;/div&gt;&lt;div&gt;&amp;nbsp;+ 영화 삭제 : void&lt;/div&gt;&lt;div&gt;&amp;nbsp;+ 영화 등록 : void&lt;/div&gt;&lt;div&gt;&amp;nbsp;+ 영화 수정 : void&lt;/div&gt;&lt;div&gt;&lt;br&gt;&lt;div&gt;&lt;br&gt;&lt;/div&gt;&lt;/div&gt;" style="verticalAlign=top;align=left;overflow=fill;fontSize=12;fontFamily=Helvetica;html=1;whiteSpace=wrap;" parent="1" vertex="1">
          <mxGeometry x="64" y="1636" width="155" height="200" as="geometry" />
        </mxCell>
        <mxCell id="WxR0v2_Uw6utIprh0zth-8" value="" style="endArrow=none;html=1;rounded=0;exitX=0.5;exitY=0;exitDx=0;exitDy=0;entryX=0.5;entryY=1;entryDx=0;entryDy=0;startArrow=block;startFill=1;" parent="1" source="WxR0v2_Uw6utIprh0zth-7" target="WxR0v2_Uw6utIprh0zth-4" edge="1">
          <mxGeometry width="50" height="50" relative="1" as="geometry">
            <mxPoint x="223.5" y="1566" as="sourcePoint" />
            <mxPoint x="274.5" y="1646" as="targetPoint" />
            <Array as="points" />
          </mxGeometry>
        </mxCell>
        <mxCell id="WxR0v2_Uw6utIprh0zth-9" value="&lt;p style=&quot;margin:0px;margin-top:4px;text-align:center;&quot;&gt;&lt;b&gt;영화 예매 화면 Class&lt;/b&gt;&lt;/p&gt;&lt;hr size=&quot;1&quot;&gt;&lt;p style=&quot;margin:0px;margin-left:4px;&quot;&gt;+ 할인권_ID : int&lt;/p&gt;&lt;hr&gt;&lt;p style=&quot;margin:0px;margin-left:4px;&quot;&gt;&lt;/p&gt;&lt;p style=&quot;margin:0px;margin-left:4px;&quot;&gt;+ access() : void&lt;/p&gt;&lt;p style=&quot;margin:0px;margin-left:4px;&quot;&gt;+ cancel() : void&lt;/p&gt;" style="verticalAlign=top;align=left;overflow=fill;fontSize=12;fontFamily=Helvetica;html=1;whiteSpace=wrap;" parent="1" vertex="1">
          <mxGeometry x="296.5" y="1686" width="155" height="100" as="geometry" />
        </mxCell>
        <mxCell id="mcsZTZsQrdgCdifywNqP-1" value="" style="rounded=0;whiteSpace=wrap;html=1;" parent="1" vertex="1">
          <mxGeometry x="930" y="1120" width="220" height="1090" as="geometry" />
        </mxCell>
        <mxCell id="mcsZTZsQrdgCdifywNqP-2" value="&lt;p style=&quot;margin:0px;margin-top:4px;text-align:center;&quot;&gt;&lt;b&gt;FrontController Class&lt;/b&gt;&lt;/p&gt;&lt;hr size=&quot;1&quot;&gt;&lt;p style=&quot;margin:0px;margin-left:4px;&quot;&gt;+ field: Type&lt;/p&gt;&lt;hr size=&quot;1&quot;&gt;&lt;p style=&quot;margin:0px;margin-left:4px;&quot;&gt;+ method(): Type&lt;/p&gt;" style="verticalAlign=top;align=left;overflow=fill;fontSize=12;fontFamily=Helvetica;html=1;whiteSpace=wrap;" parent="1" vertex="1">
          <mxGeometry x="570" y="1380" width="160" height="130" as="geometry" />
        </mxCell>
        <mxCell id="mcsZTZsQrdgCdifywNqP-3" value="&lt;p style=&quot;margin:0px;margin-top:4px;text-align:center;&quot;&gt;&lt;b&gt;영화 Controller Class&lt;/b&gt;&lt;/p&gt;&lt;hr size=&quot;1&quot;&gt;&lt;p style=&quot;margin:0px;margin-left:4px;&quot;&gt;+ field: Type&lt;/p&gt;&lt;hr size=&quot;1&quot;&gt;&lt;p style=&quot;margin: 0px 0px 0px 4px;&quot;&gt;1 파라미터 받기(DTO)&lt;/p&gt;&lt;p style=&quot;margin: 0px 0px 0px 4px;&quot;&gt;&lt;span style=&quot;background-color: initial;&quot;&gt;2 ArrayList&amp;lt;MovieDto&amp;gt; 받기&lt;/span&gt;&lt;/p&gt;&lt;p style=&quot;margin: 0px 0px 0px 4px;&quot;&gt;&lt;span style=&quot;background-color: initial;&quot;&gt;3 View로 이동(결과값전달)&lt;/span&gt;&lt;/p&gt;" style="verticalAlign=top;align=left;overflow=fill;fontSize=12;fontFamily=Helvetica;html=1;whiteSpace=wrap;" parent="1" vertex="1">
          <mxGeometry x="950" y="1378" width="190" height="130" as="geometry" />
        </mxCell>
        <mxCell id="mcsZTZsQrdgCdifywNqP-4" value="&lt;p style=&quot;margin:0px;margin-top:4px;text-align:center;&quot;&gt;&lt;b&gt;인증 Controller Class&lt;/b&gt;&lt;/p&gt;&lt;hr size=&quot;1&quot;&gt;&lt;p style=&quot;margin:0px;margin-left:4px;&quot;&gt;+ field: Type&lt;/p&gt;&lt;hr size=&quot;1&quot;&gt;&lt;p style=&quot;margin:0px;margin-left:4px;&quot;&gt;1 파라미터 받기(DTO)&lt;/p&gt;&lt;p style=&quot;margin:0px;margin-left:4px;&quot;&gt;2 입력값검증(유효성검사)&lt;/p&gt;&lt;p style=&quot;margin:0px;margin-left:4px;&quot;&gt;3 인증서비스실행&lt;/p&gt;&lt;p style=&quot;margin:0px;margin-left:4px;&quot;&gt;4 View로 이동(결과값전달)&lt;/p&gt;" style="verticalAlign=top;align=left;overflow=fill;fontSize=12;fontFamily=Helvetica;html=1;whiteSpace=wrap;" parent="1" vertex="1">
          <mxGeometry x="950" y="1140" width="160" height="130" as="geometry" />
        </mxCell>
        <mxCell id="mcsZTZsQrdgCdifywNqP-5" value="&lt;p style=&quot;margin:0px;margin-top:4px;text-align:center;&quot;&gt;&lt;b&gt;예매 Controller Class&lt;/b&gt;&lt;/p&gt;&lt;hr size=&quot;1&quot;&gt;&lt;p style=&quot;margin:0px;margin-left:4px;&quot;&gt;+ field: Type&lt;/p&gt;&lt;hr size=&quot;1&quot;&gt;&lt;p style=&quot;margin:0px;margin-left:4px;&quot;&gt;1 파라미터 받기(할인권ID)&lt;/p&gt;&lt;p style=&quot;margin:0px;margin-left:4px;&quot;&gt;2 입력값 검증(유효성 검사)&lt;/p&gt;&lt;p style=&quot;margin:0px;margin-left:4px;&quot;&gt;3 결제 시스템 실행&lt;/p&gt;&lt;p style=&quot;margin:0px;margin-left:4px;&quot;&gt;4 결제 완료 여부 창 실행&lt;/p&gt;" style="verticalAlign=top;align=left;overflow=fill;fontSize=12;fontFamily=Helvetica;html=1;whiteSpace=wrap;" parent="1" vertex="1">
          <mxGeometry x="950" y="1620" width="160" height="130" as="geometry" />
        </mxCell>
        <mxCell id="mcsZTZsQrdgCdifywNqP-6" value="" style="endArrow=none;html=1;rounded=0;exitX=1;exitY=0.5;exitDx=0;exitDy=0;entryX=0;entryY=0.5;entryDx=0;entryDy=0;" parent="1" source="mcsZTZsQrdgCdifywNqP-2" target="mcsZTZsQrdgCdifywNqP-4" edge="1">
          <mxGeometry width="50" height="50" relative="1" as="geometry">
            <mxPoint x="458" y="1258" as="sourcePoint" />
            <mxPoint x="580" y="1448" as="targetPoint" />
          </mxGeometry>
        </mxCell>
        <mxCell id="mcsZTZsQrdgCdifywNqP-7" value="" style="endArrow=none;html=1;rounded=0;exitX=1;exitY=0.5;exitDx=0;exitDy=0;entryX=0;entryY=0.5;entryDx=0;entryDy=0;" parent="1" source="mcsZTZsQrdgCdifywNqP-2" target="mcsZTZsQrdgCdifywNqP-3" edge="1">
          <mxGeometry width="50" height="50" relative="1" as="geometry">
            <mxPoint x="740" y="1455" as="sourcePoint" />
            <mxPoint x="980" y="1215" as="targetPoint" />
          </mxGeometry>
        </mxCell>
        <mxCell id="mcsZTZsQrdgCdifywNqP-8" value="" style="endArrow=none;html=1;rounded=0;exitX=1;exitY=0.5;exitDx=0;exitDy=0;entryX=0;entryY=0.5;entryDx=0;entryDy=0;" parent="1" source="mcsZTZsQrdgCdifywNqP-2" target="mcsZTZsQrdgCdifywNqP-5" edge="1">
          <mxGeometry width="50" height="50" relative="1" as="geometry">
            <mxPoint x="740" y="1455" as="sourcePoint" />
            <mxPoint x="980" y="1445" as="targetPoint" />
          </mxGeometry>
        </mxCell>
        <mxCell id="mcsZTZsQrdgCdifywNqP-9" value="사용자의 모든 요청을 받는 컨트롤러" style="text;html=1;align=center;verticalAlign=middle;resizable=0;points=[];autosize=1;strokeColor=none;fillColor=none;" parent="1" vertex="1">
          <mxGeometry x="560" y="1350" width="220" height="30" as="geometry" />
        </mxCell>
        <mxCell id="mcsZTZsQrdgCdifywNqP-10" value="각 서비스와 연결되는 서브 컨트롤러" style="text;html=1;align=center;verticalAlign=middle;resizable=0;points=[];autosize=1;strokeColor=none;fillColor=none;" parent="1" vertex="1">
          <mxGeometry x="920" y="1090" width="220" height="30" as="geometry" />
        </mxCell>
        <mxCell id="TJfwhoOO_ocuYGUksUtC-1" value="&lt;p style=&quot;margin:0px;margin-top:4px;text-align:center;&quot;&gt;&lt;b&gt;인증서비스 Class&lt;/b&gt;&lt;/p&gt;&lt;hr size=&quot;1&quot;&gt;&lt;p style=&quot;margin:0px;margin-left:4px;&quot;&gt;+ 회원_ID : String&lt;/p&gt;&lt;p style=&quot;margin:0px;margin-left:4px;&quot;&gt;- pw : String&lt;/p&gt;&lt;p style=&quot;margin:0px;margin-left:4px;&quot;&gt;- 이름 : String&lt;/p&gt;&lt;p style=&quot;margin:0px;margin-left:4px;&quot;&gt;- 주소 : String&lt;/p&gt;&lt;p style=&quot;margin:0px;margin-left:4px;&quot;&gt;- 연락처 : String&lt;/p&gt;&lt;hr size=&quot;1&quot;&gt;&lt;p style=&quot;margin:0px;margin-left:4px;&quot;&gt;&lt;span style=&quot;background-color: initial;&quot;&gt;회원가입&lt;/span&gt;&lt;br&gt;&lt;/p&gt;&lt;p style=&quot;margin:0px;margin-left:4px;&quot;&gt;&lt;span style=&quot;text-align: center;&quot;&gt;회원조회&lt;/span&gt;&lt;br style=&quot;border-color: var(--border-color); text-align: center;&quot;&gt;&lt;span style=&quot;text-align: center;&quot;&gt;회원수정&lt;/span&gt;&lt;br style=&quot;border-color: var(--border-color); text-align: center;&quot;&gt;&lt;span style=&quot;text-align: center;&quot;&gt;회원탈퇴&lt;/span&gt;&lt;br style=&quot;border-color: var(--border-color); text-align: center;&quot;&gt;&lt;br style=&quot;border-color: var(--border-color); text-align: center;&quot;&gt;&lt;span style=&quot;text-align: center;&quot;&gt;회원 로그인&lt;/span&gt;&lt;br style=&quot;border-color: var(--border-color); text-align: center;&quot;&gt;&lt;span style=&quot;text-align: center;&quot;&gt;매니저 로그인&lt;/span&gt;&lt;br style=&quot;border-color: var(--border-color); text-align: center;&quot;&gt;&lt;span style=&quot;text-align: center;&quot;&gt;로그아웃&lt;/span&gt;&lt;br style=&quot;border-color: var(--border-color); text-align: center;&quot;&gt;&lt;br style=&quot;border-color: var(--border-color); text-align: center;&quot;&gt;&lt;span style=&quot;text-align: center;&quot;&gt;권한처리&lt;/span&gt;&lt;br&gt;&lt;/p&gt;" style="verticalAlign=top;align=left;overflow=fill;fontSize=12;fontFamily=Helvetica;html=1;whiteSpace=wrap;" parent="1" vertex="1">
          <mxGeometry x="1280" y="970" width="160" height="270" as="geometry" />
        </mxCell>
        <mxCell id="60oPHOrkXD0BSqej9F1p-1" value="&lt;p style=&quot;margin:0px;margin-top:4px;text-align:center;&quot;&gt;&lt;b&gt;MemberDto&lt;/b&gt;&lt;/p&gt;&lt;hr size=&quot;1&quot;&gt;&lt;p style=&quot;margin:0px;margin-left:4px;&quot;&gt;- id : String&lt;/p&gt;&lt;p style=&quot;margin:0px;margin-left:4px;&quot;&gt;- pw : String&lt;/p&gt;&lt;p style=&quot;margin:0px;margin-left:4px;&quot;&gt;- username : String&lt;/p&gt;&lt;p style=&quot;margin:0px;margin-left:4px;&quot;&gt;- address : String&lt;/p&gt;&lt;p style=&quot;margin:0px;margin-left:4px;&quot;&gt;- phone_number : String&lt;/p&gt;&lt;p style=&quot;margin:0px;margin-left:4px;&quot;&gt;- 할인권 보유 여부 : Boolean&lt;/p&gt;&lt;hr style=&quot;border-color: var(--border-color);&quot; size=&quot;1&quot;&gt;&lt;p style=&quot;margin:0px;margin-left:4px;&quot;&gt;&lt;br&gt;&lt;/p&gt;" style="verticalAlign=top;align=left;overflow=fill;fontSize=12;fontFamily=Helvetica;html=1;whiteSpace=wrap;" parent="1" vertex="1">
          <mxGeometry x="1507.5" y="1220" width="160" height="156" as="geometry" />
        </mxCell>
        <mxCell id="Ty_K9YiZllYWAyQdbikF-1" value="&lt;p style=&quot;margin:0px;margin-top:4px;text-align:center;&quot;&gt;&lt;b&gt;영화 서비스 Class&lt;/b&gt;&lt;/p&gt;&lt;hr size=&quot;1&quot;&gt;&lt;p style=&quot;margin:0px;margin-left:4px;&quot;&gt;+ 영화_ID : Int&lt;/p&gt;&lt;p style=&quot;margin:0px;margin-left:4px;&quot;&gt;+ 영화 제목 : String&lt;/p&gt;&lt;p style=&quot;margin:0px;margin-left:4px;&quot;&gt;+ 영화 장르 : String&lt;/p&gt;&lt;p style=&quot;margin:0px;margin-left:4px;&quot;&gt;+ 예매 가능 여부 : boolean&lt;/p&gt;&lt;p style=&quot;margin:0px;margin-left:4px;&quot;&gt;+ 상영 시작 시간 : Date&lt;/p&gt;&lt;hr size=&quot;1&quot;&gt;&lt;p style=&quot;margin:0px;margin-left:4px;&quot;&gt;영화 조회&lt;/p&gt;&lt;p style=&quot;margin:0px;margin-left:4px;&quot;&gt;영화 선택&lt;/p&gt;&lt;p style=&quot;margin:0px;margin-left:4px;&quot;&gt;영화 등록&lt;/p&gt;&lt;p style=&quot;margin:0px;margin-left:4px;&quot;&gt;영화 수정&lt;/p&gt;&lt;p style=&quot;margin:0px;margin-left:4px;&quot;&gt;영화 삭제&lt;/p&gt;&lt;p style=&quot;margin:0px;margin-left:4px;&quot;&gt;&lt;br&gt;&lt;/p&gt;" style="verticalAlign=top;align=left;overflow=fill;fontSize=12;fontFamily=Helvetica;html=1;whiteSpace=wrap;" parent="1" vertex="1">
          <mxGeometry x="1280" y="1500" width="160" height="190" as="geometry" />
        </mxCell>
        <mxCell id="86rVkL3G642u08QKVIB0-1" value="&lt;p style=&quot;margin:0px;margin-top:4px;text-align:center;&quot;&gt;&lt;b&gt;예매서비스 Class&lt;/b&gt;&lt;/p&gt;&lt;hr size=&quot;1&quot;&gt;&lt;p style=&quot;margin:0px;margin-left:4px;&quot;&gt;+ 예매_ID : int&lt;/p&gt;&lt;p style=&quot;margin:0px;margin-left:4px;&quot;&gt;+ 예매 처리 여부 : boolean&lt;/p&gt;&lt;hr size=&quot;1&quot;&gt;&lt;p style=&quot;margin:0px;margin-left:4px;&quot;&gt;예매 승인&lt;br style=&quot;border-color: var(--border-color);&quot;&gt;예매 취소&lt;/p&gt;" style="verticalAlign=top;align=left;overflow=fill;fontSize=12;fontFamily=Helvetica;html=1;whiteSpace=wrap;" parent="1" vertex="1">
          <mxGeometry x="1280" y="1980" width="160" height="110" as="geometry" />
        </mxCell>
        <mxCell id="JZF86NcXESl-_ndPG8sj-1" value="&lt;p style=&quot;margin:0px;margin-top:4px;text-align:center;&quot;&gt;&lt;b&gt;MovieDto&lt;/b&gt;&lt;/p&gt;&lt;hr size=&quot;1&quot;&gt;&lt;p style=&quot;border-color: var(--border-color); margin: 0px 0px 0px 4px;&quot;&gt;- 영화_ID: int&lt;/p&gt;&lt;p style=&quot;border-color: var(--border-color); margin: 0px 0px 0px 4px;&quot;&gt;- 영화제목 : String&lt;/p&gt;&lt;p style=&quot;border-color: var(--border-color); margin: 0px 0px 0px 4px;&quot;&gt;- 영화장르 : String&lt;/p&gt;&lt;p style=&quot;border-color: var(--border-color); margin: 0px 0px 0px 4px;&quot;&gt;- 영화예매여부: Boolean&lt;/p&gt;&lt;hr style=&quot;border-color: var(--border-color);&quot; size=&quot;1&quot;&gt;&lt;p style=&quot;margin:0px;margin-left:4px;&quot;&gt;&lt;br&gt;&lt;/p&gt;" style="verticalAlign=top;align=left;overflow=fill;fontSize=12;fontFamily=Helvetica;html=1;whiteSpace=wrap;" parent="1" vertex="1">
          <mxGeometry x="1490" y="1750" width="160" height="126" as="geometry" />
        </mxCell>
        <mxCell id="Pmqhf5Je-WZBFbaj4LNk-1" value="&lt;p style=&quot;margin:0px;margin-top:4px;text-align:center;&quot;&gt;&lt;b&gt;MovieDao&lt;/b&gt;&lt;/p&gt;&lt;hr size=&quot;1&quot;&gt;&lt;p style=&quot;margin:0px;margin-left:4px;&quot;&gt;- id : String&lt;/p&gt;&lt;p style=&quot;margin:0px;margin-left:4px;&quot;&gt;- pw : String&lt;/p&gt;&lt;p style=&quot;margin:0px;margin-left:4px;&quot;&gt;- url : String&lt;/p&gt;&lt;p style=&quot;margin:0px;margin-left:4px;&quot;&gt;- conn : Connection&lt;/p&gt;&lt;p style=&quot;margin:0px;margin-left:4px;&quot;&gt;- pstmt : PreparedStatement&lt;/p&gt;&lt;p style=&quot;margin:0px;margin-left:4px;&quot;&gt;- rs : ResultSet&lt;/p&gt;&lt;hr size=&quot;1&quot;&gt;&lt;p style=&quot;margin:0px;margin-left:4px;&quot;&gt;&lt;span style=&quot;background-color: initial;&quot;&gt;+select() : List&amp;lt;MovieDto&amp;gt;&lt;/span&gt;&lt;br&gt;&lt;/p&gt;&lt;p style=&quot;margin:0px;margin-left:4px;&quot;&gt;&lt;span style=&quot;background-color: initial;&quot;&gt;+select(int 영화_ID&lt;/span&gt;&lt;span style=&quot;background-color: initial;&quot;&gt;): List&amp;lt;&lt;/span&gt;&lt;span style=&quot;background-color: initial;&quot;&gt;Movie&lt;/span&gt;&lt;span style=&quot;background-color: initial;&quot;&gt;Dto&amp;gt;&lt;/span&gt;&lt;/p&gt;&lt;p style=&quot;margin:0px;margin-left:4px;&quot;&gt;+insert(MovieDto dto):int&lt;/p&gt;&lt;p style=&quot;margin:0px;margin-left:4px;&quot;&gt;+update(MovieDto dto):int&lt;/p&gt;&lt;p style=&quot;margin:0px;margin-left:4px;&quot;&gt;+delete(int 영화_ID):int&lt;/p&gt;&lt;p style=&quot;margin:0px;margin-left:4px;&quot;&gt;&lt;br&gt;&lt;/p&gt;&lt;p style=&quot;margin:0px;margin-left:4px;&quot;&gt;&lt;br&gt;&lt;/p&gt;" style="verticalAlign=top;align=left;overflow=fill;fontSize=12;fontFamily=Helvetica;html=1;whiteSpace=wrap;" parent="1" vertex="1">
          <mxGeometry x="1490" y="1486" width="215" height="210" as="geometry" />
        </mxCell>
        <mxCell id="9zaVfMPLjGywUs1sGfpx-1" value="&lt;p style=&quot;margin:0px;margin-top:4px;text-align:center;&quot;&gt;&lt;b&gt;MemberDao Class&lt;/b&gt;&lt;/p&gt;&lt;hr size=&quot;1&quot;&gt;&lt;p style=&quot;border-color: var(--border-color); margin: 0px 0px 0px 4px;&quot;&gt;- id : String&lt;/p&gt;&lt;p style=&quot;border-color: var(--border-color); margin: 0px 0px 0px 4px;&quot;&gt;- pw : String&lt;/p&gt;&lt;p style=&quot;border-color: var(--border-color); margin: 0px 0px 0px 4px;&quot;&gt;- url : String&lt;/p&gt;&lt;p style=&quot;border-color: var(--border-color); margin: 0px 0px 0px 4px;&quot;&gt;- conn : Connection&lt;/p&gt;&lt;p style=&quot;border-color: var(--border-color); margin: 0px 0px 0px 4px;&quot;&gt;- pstmt : PreparedStatement&lt;/p&gt;&lt;p style=&quot;border-color: var(--border-color); margin: 0px 0px 0px 4px;&quot;&gt;- rs : ResultSet&lt;/p&gt;&lt;hr size=&quot;1&quot;&gt;&lt;p style=&quot;border-color: var(--border-color); margin: 0px 0px 0px 4px;&quot;&gt;+select() : List&amp;lt;MemberDto&amp;gt;&lt;br style=&quot;border-color: var(--border-color);&quot;&gt;&lt;/p&gt;&lt;p style=&quot;border-color: var(--border-color); margin: 0px 0px 0px 4px;&quot;&gt;+insert(MemberDto dto):int&lt;/p&gt;&lt;p style=&quot;border-color: var(--border-color); margin: 0px 0px 0px 4px;&quot;&gt;+update(MemberDto dto):int&lt;/p&gt;&lt;p style=&quot;border-color: var(--border-color); margin: 0px 0px 0px 4px;&quot;&gt;+delete(String id):int&lt;/p&gt;&lt;p style=&quot;border-color: var(--border-color); margin: 0px 0px 0px 4px;&quot;&gt;&lt;br&gt;&lt;/p&gt;" style="verticalAlign=top;align=left;overflow=fill;fontSize=12;fontFamily=Helvetica;html=1;whiteSpace=wrap;" parent="1" vertex="1">
          <mxGeometry x="1490" y="975" width="195" height="210" as="geometry" />
        </mxCell>
      </root>
    </mxGraphModel>
  </diagram>
</mxfile>
